<svg xmlns="http://www.w3.org/2000/svg" xmlns:svg="http://www.w3.org/2000/svg" id="svg35" width="128" height="128" version="1.1" viewBox="0 0 128 128"><linearGradient id="a" x1="36" x2="60" y1="68" y2="68" gradientUnits="userSpaceOnUse"><stop id="stop2" offset="0" stop-color="#ed336c"/><stop id="stop4" offset="1" stop-color="#ffa348"/></linearGradient><linearGradient id="b" x1="72" x2="96" y1="68" y2="68" gradientTransform="matrix(0 1 -1 0 144 -32)" gradientUnits="userSpaceOnUse"><stop id="stop7" offset="0" stop-color="#404ce6"/><stop id="stop9" offset="1" stop-color="#c061cb"/></linearGradient><linearGradient id="c" x1="68.849" x2="95.258" y1="84" y2="84" gradientUnits="userSpaceOnUse"><stop id="stop12" offset="0" stop-color="#33d1c6"/><stop id="stop14" offset="1" stop-color="#1c25d8"/></linearGradient><path style="display:inline;fill:#30b9db;fill-opacity:1;stroke:none;stroke-width:.125;stroke-linejoin:round;stroke-miterlimit:4;stroke-dasharray:none;stroke-opacity:1;enable-background:new" id="path4411" d="m 27.978072,8.0000006 h 50.000002 l 30.042896,29.9178934 10e-4,74.060006 c 8e-5,4.432 -3.6122,8.0221 -8.044196,8.0221 H 27.978011 c -4.431999,0 -7.999999,-3.568 -7.999999,-8.00001 V 16 c 0,-4.431999 3.568,-7.9999994 7.999999,-7.9999994 z" clip-path="none"/><path style="display:inline;vector-effect:none;fill:#378bba;fill-opacity:1;stroke:none;stroke-width:.125;stroke-linecap:butt;stroke-linejoin:round;stroke-miterlimit:4;stroke-dasharray:none;stroke-dashoffset:0;stroke-opacity:1;enable-background:new" id="path4413" d="M 77.978074,8.0000006 V 30.000002 c 0,4.432 3.610527,7.923448 8.042527,7.923448 l 22.000369,-0.0055 z"/><path id="path9393" d="M 62.392846,84.867615 51.678561,74.153329 62.392846,63.439044 Z m 0,19.285715 L 32.392848,74.153329 62.392846,44.153331 v 15 l -14.999998,14.999998 14.999998,15 z" style="fill:#fff;fill-opacity:1;stroke:none;stroke-width:.267857px;stroke-linecap:butt;stroke-linejoin:miter;stroke-opacity:1;opacity:.7"/><path style="fill:#fff;fill-opacity:1;stroke:none;stroke-width:.267857px;stroke-linecap:butt;stroke-linejoin:miter;stroke-opacity:1" id="path13640" d="m 64.535703,44.153331 v 15 l 15,14.999998 -15,15 V 104.15333 L 95.607131,74.153329 Z"/></svg>