<svg xmlns="http://www.w3.org/2000/svg" xmlns:svg="http://www.w3.org/2000/svg" xmlns:xlink="http://www.w3.org/1999/xlink" id="svg35" width="128" height="128" version="1.1" viewBox="0 0 128 128" xml:space="preserve"><defs id="defs39"><linearGradient id="linearGradient1496" x1="280" x2="280" y1="172" y2="20" gradientUnits="userSpaceOnUse" xlink:href="#linearGradient1494"/><linearGradient id="linearGradient1494"><stop id="stop1490" offset="0" style="stop-color:#babdb6;stop-opacity:1"/><stop id="stop1492" offset="1" style="stop-color:#babdb6;stop-opacity:0"/></linearGradient></defs><linearGradient id="a" x1="36" x2="60" y1="68" y2="68" gradientUnits="userSpaceOnUse"><stop id="stop2" offset="0" stop-color="#ed336c"/><stop id="stop4" offset="1" stop-color="#ffa348"/></linearGradient><linearGradient id="b" x1="72" x2="96" y1="68" y2="68" gradientTransform="matrix(0 1 -1 0 144 -32)" gradientUnits="userSpaceOnUse"><stop id="stop7" offset="0" stop-color="#404ce6"/><stop id="stop9" offset="1" stop-color="#c061cb"/></linearGradient><linearGradient id="c" x1="68.849" x2="95.258" y1="84" y2="84" gradientUnits="userSpaceOnUse"><stop id="stop12" offset="0" stop-color="#33d1c6"/><stop id="stop14" offset="1" stop-color="#1c25d8"/></linearGradient><path style="display:inline;fill:#121212;fill-opacity:1;stroke:none;stroke-width:.124969;stroke-linejoin:round;stroke-miterlimit:4;stroke-dasharray:none;stroke-opacity:1;enable-background:new" id="path4411" d="M 27.996066,8.0000006 H 77.971104 L 107.999,37.917894 108,111.9779 c 8e-5,4.432 -3.61039,8.0221 -8.04018,8.0221 H 27.996005 C 23.566219,120 20,116.432 20,111.99999 V 16 c 0,-4.431999 3.566219,-7.9999994 7.996005,-7.9999994 z" clip-path="none"/><path style="display:inline;vector-effect:none;fill:#3d3846;fill-opacity:1;stroke:none;stroke-width:.125;stroke-linecap:butt;stroke-linejoin:round;stroke-miterlimit:4;stroke-dasharray:none;stroke-dashoffset:0;stroke-opacity:1;enable-background:new" id="path4413" d="M 77.957104,8.0000006 V 30.000002 c 0,4.432 3.610527,7.923448 8.042527,7.923448 L 108,37.91795 Z"/><circle id="path907" cx="-503.168" cy="-123.238" r="0" style="display:inline;opacity:.05;fill:#ac1d2e;fill-opacity:1;stroke:none;stroke-width:.0111402px;stroke-linecap:butt;stroke-linejoin:miter;stroke-miterlimit:4;stroke-dasharray:none;stroke-dashoffset:0;stroke-opacity:1;marker:none;marker-start:none;marker-mid:none;marker-end:none;paint-order:normal;enable-background:new"/><path id="polygon1" d="m 92.82422,49.016655 -19.2168,8.626954 H 55.96094 l -7.45117,8.628906 H 66.44141 L 35.17578,103.919 54.39258,94.899467 h 17.64648 l 7.45117,-8.626952 H 61.61914 Z M 34,57.643609 v 37.255858 h 4.70508 l 7.45117,-8.626952 h -3.5293 v -20 h 2.35352 l 7.05859,-8.628906 z m 55.29492,0 -7.45117,9.01953 h 3.5293 v 19.609376 h -2.35352 l -7.45117,8.626952 H 94 V 57.643609 Z" style="fill:#f7a41d;stroke-width:.392157"/></svg>