<svg xmlns="http://www.w3.org/2000/svg" xmlns:svg="http://www.w3.org/2000/svg" xmlns:xlink="http://www.w3.org/1999/xlink" id="svg35" width="128" height="128" version="1.1" viewBox="0 0 128 128" xml:space="preserve"><defs id="defs39"><linearGradient id="linearGradient1"><stop style="stop-color:#3c98bb;stop-opacity:1" id="stop3" offset="0"/><stop style="stop-color:#29b1b0;stop-opacity:1" id="stop1" offset="1"/></linearGradient><mask id="holes"><rect id="rect1240" width="120" height="120" x="-60" y="-60" fill="#fff"/><circle id="hole" cx="0" cy="-40" r="3"/><use id="use1243" transform="rotate(72)" xlink:href="#hole"/><use id="use1245" transform="rotate(144)" xlink:href="#hole"/><use id="use1247" transform="rotate(-144)" xlink:href="#hole"/><use id="use1249" transform="rotate(-72)" xlink:href="#hole"/></mask><linearGradient id="linearGradient3" x1="33.339" x2="77.978" y1="108.121" y2="37.923" gradientUnits="userSpaceOnUse" xlink:href="#linearGradient1"/></defs><linearGradient id="a" x1="36" x2="60" y1="68" y2="68" gradientUnits="userSpaceOnUse"><stop id="stop2" offset="0" stop-color="#ed336c"/><stop id="stop4" offset="1" stop-color="#ffa348"/></linearGradient><linearGradient id="b" x1="72" x2="96" y1="68" y2="68" gradientTransform="matrix(0 1 -1 0 144 -32)" gradientUnits="userSpaceOnUse"><stop id="stop7" offset="0" stop-color="#404ce6"/><stop id="stop9" offset="1" stop-color="#c061cb"/></linearGradient><linearGradient id="c" x1="68.849" x2="95.258" y1="84" y2="84" gradientUnits="userSpaceOnUse"><stop id="stop12" offset="0" stop-color="#33d1c6"/><stop id="stop14" offset="1" stop-color="#1c25d8"/></linearGradient><path style="display:inline;fill:url(#linearGradient3);fill-opacity:1;stroke:none;stroke-width:.125;stroke-linejoin:round;stroke-miterlimit:4;stroke-dasharray:none;stroke-opacity:1;enable-background:new" id="path4411" d="m 27.978072,8.0000006 h 50.000002 l 30.042896,29.9178934 10e-4,74.060006 c 8e-5,4.432 -3.6122,8.0221 -8.044196,8.0221 H 27.978011 c -4.431999,0 -7.999999,-3.568 -7.999999,-8.00001 V 16 c 0,-4.431999 3.568,-7.9999994 7.999999,-7.9999994 z" clip-path="none"/><path style="display:inline;vector-effect:none;fill:#000;fill-opacity:.200017;stroke:none;stroke-width:.125;stroke-linecap:butt;stroke-linejoin:round;stroke-miterlimit:4;stroke-dasharray:none;stroke-dashoffset:0;stroke-opacity:1;enable-background:new" id="path4413" d="M 77.978074,8.0000006 V 30.000002 c 0,4.432 3.610527,7.923448 8.042527,7.923448 l 22.000369,-0.0055 z"/><path id="path1" fill="currentColor" d="m 65.634086,88.61581 c 0,2.7839 0.39945,4.65204 1.19835,5.60442 0.79888,0.95239 2.25143,1.42858 4.35752,1.42858 2.17888,0 4.97507,-1.09891 8.38856,-3.29672 l 2.17888,3.62639 c -6.39135,5.34801 -11.65673,8.02201 -15.79649,8.02201 -4.13975,0 -7.408,-0.98902 -9.80469,-2.96705 -2.3967,-2.05129 -3.59505,-5.64104 -3.59505,-10.76927 V 61.47304 h -5.44705 l -0.87153,-4.065951 6.31858,-1.978005 v -5.384638 l 13.07292,-6.043956 v 12.087937 l 12.85511,-0.989015 -1.19847,7.142862 -11.65664,-0.439562 z" style="fill:#fff;stroke-width:2.4584"/></svg>