<svg xmlns="http://www.w3.org/2000/svg" xmlns:svg="http://www.w3.org/2000/svg" xmlns:xlink="http://www.w3.org/1999/xlink" id="svg5248" width="128" height="128" version="1.1" viewBox="0 0 128 128"><defs id="defs5252"><linearGradient id="linearGradient2025" x1="2689.252" x2="2918.07" y1="-1106.803" y2="-1106.803" gradientUnits="userSpaceOnUse" xlink:href="#linearGradient2023"/><linearGradient id="linearGradient2023"><stop style="stop-color:#62a0ea;stop-opacity:1" id="stop2019" offset="0"/><stop style="stop-color:#afd4ff;stop-opacity:1" id="stop2795" offset=".058"/><stop style="stop-color:#62a0ea;stop-opacity:1" id="stop2797" offset=".122"/><stop style="stop-color:#62a0ea;stop-opacity:1" id="stop2793" offset=".873"/><stop style="stop-color:#c0d5ea;stop-opacity:1" id="stop2791" offset=".956"/><stop style="stop-color:#62a0ea;stop-opacity:1" id="stop2021" offset="1"/></linearGradient></defs><linearGradient id="a" x1="12" x2="116" y1="64" y2="64" gradientUnits="userSpaceOnUse"><stop id="stop5214" offset="0" stop-color="#3d3846"/><stop id="stop5216" offset=".05" stop-color="#77767b"/><stop id="stop5218" offset=".1" stop-color="#5e5c64"/><stop id="stop5220" offset=".9" stop-color="#504e56"/><stop id="stop5222" offset=".95" stop-color="#77767b"/><stop id="stop5224" offset="1" stop-color="#3d3846"/></linearGradient><linearGradient id="b" x1="12" x2="112.041" y1="60" y2="80.988" gradientUnits="userSpaceOnUse"><stop id="stop5227" offset="0" stop-color="#77767b"/><stop id="stop5229" offset=".384" stop-color="#9a9996"/><stop id="stop5231" offset=".721" stop-color="#77767b"/><stop id="stop5233" offset="1" stop-color="#68666f"/></linearGradient><g id="g760" transform="matrix(0.45451006,0,0,0.45552152,-1210.2921,616.15659)" style="display:inline;stroke-width:1.26428;enable-background:new"><path id="rect1135" d="m 2711.2064,-1326.3316 c -12.1618,0 -21.9544,9.791 -21.9544,21.9528 v 188.867 c 0,12.1618 9.7926,21.9528 21.9544,21.9528 h 184.9089 c 12.1619,0 21.9545,-9.791 21.9545,-21.9528 v -158.2547 a 26.343462,26.343462 45 0 0 -26.3435,-26.3435 h -101.2664 a 14.283764,14.283764 31.638659 0 1 -12.7581,-7.8607 l -3.3076,-6.5699 a 21.425501,21.425501 31.638659 0 0 -19.1371,-11.791 z" style="fill:#438de6;fill-opacity:1;stroke-width:8.79091;stroke-linecap:round;stop-color:#000"/><path id="path1953" d="m 2808.014,-1273.6447 c -6.0429,0 -11.5016,2.4179 -15.4646,6.3426 -5.0031,4.9549 -11.8483,11.2197 -18.9936,11.2197 h -62.3494 c -12.1618,0 -21.9544,9.791 -21.9544,21.9528 v 118.6179 c 0,12.1618 9.7926,21.9528 21.9544,21.9528 h 184.9089 c 12.1619,0 21.9545,-9.791 21.9545,-21.9528 v -105.4461 -13.1718 -17.5623 c 0,-12.1618 -9.7926,-21.9528 -21.9545,-21.9528 z" style="fill:url(#linearGradient2025);fill-opacity:1;stroke-width:8.79091;stroke-linecap:round;stop-color:#000"/><path id="rect1586" d="m 2808.014,-1282.4259 c -6.0429,0 -11.5016,2.4179 -15.4646,6.3426 -5.0031,4.9549 -11.8483,11.2197 -18.9936,11.2197 h -62.3494 c -12.1618,0 -21.9544,9.791 -21.9544,21.9528 v 122.8867 c 0,12.1618 9.7926,21.9528 21.9544,21.9528 h 184.9089 c 12.1619,0 21.9545,-9.791 21.9545,-21.9528 v -109.7149 -13.1718 -17.5623 c 0,-12.1618 -9.7926,-21.9528 -21.9545,-21.9528 z" style="fill:#a4caee;fill-opacity:1;stroke-width:8.79091;stroke-linecap:round;stop-color:#000"/></g><path id="path1" fill="#0364b8" d="m 60.202427,71.427777 3.1e-4,-0.0011 6.71765,4.02379 4.00293,-1.68451 1.8e-4,6.8e-4 a 6.4768,6.4768 0 0 1 2.57648,-0.53178 c 0.14764,0 0.29358,0.0067 0.43878,0.01639 a 10.00075,10.00075 0 0 0 -18.041,-3.01381 c 0.03422,-4.3e-4 0.06792,-0.0026 0.10222,-0.0026 a 7.96073,7.96073 0 0 1 4.20245,1.19292 z" style="opacity:.4;fill:#438de6;fill-opacity:1"/><path id="path2-6" fill="#0078d4" d="m 60.202737,71.426677 -3.1e-4,0.0011 a 7.96073,7.96073 0 0 0 -4.20245,-1.19292 c -0.0343,0 -0.06805,0.0022 -0.10223,0.0026 a 7.99676,7.99676 0 0 0 -6.46045,12.57017 l 5.924,-2.49292 2.63342,-1.10819 5.86353,-2.46746 3.06213,-1.28859 z" style="opacity:.6;fill:#438de6;fill-opacity:1"/><path id="path3" fill="#1490df" d="m 73.938757,73.251247 c -0.1452,-0.0097 -0.29114,-0.01639 -0.43878,-0.01639 a 6.4768,6.4768 0 0 0 -2.57648,0.53178 l -1.8e-4,-6.8e-4 -4.00293,1.68451 1.16077,0.69528 3.80493,2.27911 1.66009,0.99438 5.67633,3.40007 a 6.5002,6.5002 0 0 0 -5.28375,-9.56805 z" style="opacity:.8;fill:#438de6;fill-opacity:1"/><path id="path4" fill="#28a8ea" d="m 73.546177,79.419227 -1.66009,-0.99437 -3.80493,-2.2791 -1.16077,-0.69528 -3.06213,1.28858 -5.86353,2.46746 -2.63342,1.10819 -5.924,2.49292 a 7.98889,7.98889 0 0 0 6.56267,3.42723 h 17.5 a 6.49837,6.49837 0 0 0 5.72253,-3.41556 z" style="fill:#438de6;fill-opacity:1"/></svg>