<svg xmlns="http://www.w3.org/2000/svg" xmlns:svg="http://www.w3.org/2000/svg" xmlns:xlink="http://www.w3.org/1999/xlink" id="svg5248" width="128" height="128" version="1.1" viewBox="0 0 128 128"><defs id="defs5252"><filter style="color-interpolation-filters:sRGB" id="filter1302" width="1.024" height="1.024" x="-.012" y="-.012"><feGaussianBlur id="feGaussianBlur1304" stdDeviation="2.08"/></filter><linearGradient id="bg-gradient-2"><stop style="stop-color:#3584e4;stop-opacity:1" id="stop13402" offset="0"/><stop style="stop-color:#62a0ea;stop-opacity:1" id="stop13404" offset="1"/></linearGradient><clipPath id="clipPath1509" clipPathUnits="userSpaceOnUse"><path id="path1511" d="M 192,-164 H 88 c 0,0 -40,0 -40,40 V 4 h 416 v -96 c 0,0 0,-40 -40,-40 H 224 Z" style="display:inline;opacity:1;vector-effect:none;fill:#c9b8a7;fill-opacity:1;stroke:none;stroke-width:26.0669;stroke-linecap:butt;stroke-linejoin:miter;stroke-miterlimit:4;stroke-dasharray:none;stroke-dashoffset:0;stroke-opacity:1;marker:none;marker-start:none;marker-mid:none;marker-end:none;paint-order:normal;enable-background:new"/></clipPath><filter style="color-interpolation-filters:sRGB" id="filter1529" width="1.217" height="1.269" x="-.108" y="-.134"><feGaussianBlur id="feGaussianBlur1531" stdDeviation="18.8"/></filter><linearGradient id="linearGradient888"><stop style="stop-color:#99c1f1;stop-opacity:1" id="stop884" offset="0"/><stop style="stop-color:#c3e5e7;stop-opacity:1" id="stop886" offset="1"/></linearGradient><linearGradient id="bg-gradient"><stop style="stop-color:#3584e4;stop-opacity:1" id="stop9546" offset="0"/><stop style="stop-color:#1a5fb4;stop-opacity:1" id="stop9548" offset="1"/></linearGradient><clipPath id="clipPath4782" clipPathUnits="userSpaceOnUse"><path id="path4780" d="M 192,-164 H 88 c 0,0 -40,0 -40,40 V 4 h 416 v -96 c 0,0 0,-40 -40,-40 H 224 Z" style="display:inline;opacity:1;vector-effect:none;fill:#c9b8a7;fill-opacity:1;stroke:none;stroke-width:26.0669;stroke-linecap:butt;stroke-linejoin:miter;stroke-miterlimit:4;stroke-dasharray:none;stroke-dashoffset:0;stroke-opacity:1;marker:none;marker-start:none;marker-mid:none;marker-end:none;paint-order:normal;enable-background:new"/></clipPath><linearGradient id="linearGradient5836" x1="64" x2="480" y1="756" y2="756" gradientTransform="matrix(0.2511615,0,0,0.2511615,-222.42944,-48.902324)" gradientUnits="userSpaceOnUse" xlink:href="#bg-gradient-2"/><linearGradient id="linearGradient5838" x1="152.898" x2="447.309" y1="-38.797" y2="316" gradientTransform="matrix(0.2511615,0,0,0.2511615,-218.41086,161.06869)" gradientUnits="userSpaceOnUse" xlink:href="#linearGradient888"/><linearGradient id="linearGradient2025" x1="2689.252" x2="2918.07" y1="-1106.803" y2="-1106.803" gradientUnits="userSpaceOnUse" xlink:href="#linearGradient2023"/><linearGradient id="linearGradient2023"><stop style="stop-color:#62a0ea;stop-opacity:1" id="stop2019" offset="0"/><stop style="stop-color:#afd4ff;stop-opacity:1" id="stop2795" offset=".058"/><stop style="stop-color:#62a0ea;stop-opacity:1" id="stop2797" offset=".122"/><stop style="stop-color:#62a0ea;stop-opacity:1" id="stop2793" offset=".873"/><stop style="stop-color:#c0d5ea;stop-opacity:1" id="stop2791" offset=".956"/><stop style="stop-color:#62a0ea;stop-opacity:1" id="stop2021" offset="1"/></linearGradient></defs><linearGradient id="a" x1="12" x2="116" y1="64" y2="64" gradientUnits="userSpaceOnUse"><stop id="stop5214" offset="0" stop-color="#3d3846"/><stop id="stop5216" offset=".05" stop-color="#77767b"/><stop id="stop5218" offset=".1" stop-color="#5e5c64"/><stop id="stop5220" offset=".9" stop-color="#504e56"/><stop id="stop5222" offset=".95" stop-color="#77767b"/><stop id="stop5224" offset="1" stop-color="#3d3846"/></linearGradient><linearGradient id="b" x1="12" x2="112.041" y1="60" y2="80.988" gradientUnits="userSpaceOnUse"><stop id="stop5227" offset="0" stop-color="#77767b"/><stop id="stop5229" offset=".384" stop-color="#9a9996"/><stop id="stop5231" offset=".721" stop-color="#77767b"/><stop id="stop5233" offset="1" stop-color="#68666f"/></linearGradient><g id="g760" transform="matrix(0.45451006,0,0,0.45552152,-1210.2921,616.15659)" style="display:inline;stroke-width:1.26428;enable-background:new"><path id="rect1135" d="m 2711.2064,-1326.3316 c -12.1618,0 -21.9544,9.791 -21.9544,21.9528 v 188.867 c 0,12.1618 9.7926,21.9528 21.9544,21.9528 h 184.9089 c 12.1619,0 21.9545,-9.791 21.9545,-21.9528 v -158.2547 a 26.343462,26.343462 45 0 0 -26.3435,-26.3435 h -101.2664 a 14.283764,14.283764 31.638659 0 1 -12.7581,-7.8607 l -3.3076,-6.5699 a 21.425501,21.425501 31.638659 0 0 -19.1371,-11.791 z" style="fill:#438de6;fill-opacity:1;stroke-width:8.79091;stroke-linecap:round;stop-color:#000"/><path id="path1953" d="m 2808.014,-1273.6447 c -6.0429,0 -11.5016,2.4179 -15.4646,6.3426 -5.0031,4.9549 -11.8483,11.2197 -18.9936,11.2197 h -62.3494 c -12.1618,0 -21.9544,9.791 -21.9544,21.9528 v 118.6179 c 0,12.1618 9.7926,21.9528 21.9544,21.9528 h 184.9089 c 12.1619,0 21.9545,-9.791 21.9545,-21.9528 v -105.4461 -13.1718 -17.5623 c 0,-12.1618 -9.7926,-21.9528 -21.9545,-21.9528 z" style="fill:url(#linearGradient2025);fill-opacity:1;stroke-width:8.79091;stroke-linecap:round;stop-color:#000"/><path id="rect1586" d="m 2808.014,-1282.4259 c -6.0429,0 -11.5016,2.4179 -15.4646,6.3426 -5.0031,4.9549 -11.8483,11.2197 -18.9936,11.2197 h -62.3494 c -12.1618,0 -21.9544,9.791 -21.9544,21.9528 v 122.8867 c 0,12.1618 9.7926,21.9528 21.9544,21.9528 h 184.9089 c 12.1619,0 21.9545,-9.791 21.9545,-21.9528 v -109.7149 -13.1718 -17.5623 c 0,-12.1618 -9.7926,-21.9528 -21.9545,-21.9528 z" style="fill:#a4caee;fill-opacity:1;stroke-width:8.79091;stroke-linecap:round;stop-color:#000"/></g><g id="g10156" transform="matrix(1.999976,0,0,1.999976,-223.57663,-83.594175)"><path id="rect7157" d="m 143.78691,79.78993 c -3.99844,0 -5.99766,3 -5.99766,6 h -1.74932 c -0.2499,0 -0.2499,0.15712 -0.2499,0.25 v 1.5 c 0,0.25 0.13814,0.25 0.2499,0.25 h 15.49396 c 0.19535,0.006 0.2499,-0.12948 0.2499,-0.25 v -1.5 c 0.0212,-0.14605 0,-0.25 -0.2499,-0.25 h -1.74932 c 0,-3 -1.99922,-6 -5.99766,-6 z m 0,3 c 2.3501,0 2.99883,1.76177 2.99883,3 h -5.99766 c 0,-1.19769 0.70253,-3 2.99883,-3 z" style="display:inline;fill:#438de6;fill-opacity:1;fill-rule:evenodd;stroke:none;stroke-width:.999805;enable-background:new"/><path style="color:#000;font-style:normal;font-variant:normal;font-weight:400;font-stretch:normal;font-size:medium;line-height:normal;font-family:Sans;-inkscape-font-specification:Sans;text-indent:0;text-align:start;text-decoration:none;text-decoration-line:none;letter-spacing:normal;word-spacing:normal;text-transform:none;writing-mode:lr-tb;direction:ltr;text-anchor:start;display:inline;overflow:visible;visibility:visible;fill:#438de6;fill-opacity:1;fill-rule:nonzero;stroke:none;stroke-width:2.99942;marker:none;enable-background:accumulate" id="path3908-6" d="m 150.77894,72.389762 c -0.28315,-0.240094 -0.6238,-0.419245 -0.96653,-0.561302 l -0.0217,2.231977 c -0.005,0.458669 -0.4519,0.729493 -1.00572,0.729493 h -0.99961 c -0.55376,-0.0071 -1.00306,-0.309354 -0.9986,-0.768024 l 0.0217,-2.231976 c -0.34541,0.133216 -0.68945,0.303603 -0.9772,0.536378 -1.37728,1.114123 -1.39514,2.948878 -0.0399,4.098049 0.28315,0.240094 0.6238,0.419246 0.96652,0.561314 0.0278,0.01131 0.0278,2.054259 0.0278,2.054259 1.48949,0.75 2.35093,1.75 2.99883,2.75 v -4.748269 c 0.3454,-0.133219 0.66671,-0.321067 0.95447,-0.553841 1.37727,-1.114123 1.39514,-2.948889 0.0399,-4.098058 z"/></g></svg>